<svg width="36" height="36" viewBox="0 0 36 36" fill="none" xmlns="http://www.w3.org/2000/svg">
<rect width="36" height="36" rx="8" fill="#1ABC9C"/>
<path d="M10 15.7273C10 17.9364 8.20914 19.7273 6 19.7273C3.79086 19.7273 2 17.9364 2 15.7273C2 13.5182 3.79086 11.7273 6 11.7273C8.20914 11.7273 10 13.5182 10 15.7273Z" fill="#F1C40F"/>
<path d="M14 7.7273C14 5.51816 15.7909 3.72729 18 3.72729C20.2091 3.72729 22 5.51816 22 7.72729V23.7273C22 25.9364 20.2091 27.7273 18 27.7273C15.7909 27.7273 14 25.9364 14 23.7273V7.7273Z" fill="#FFFFFF"/>
<path d="M26 11.7273C26 9.51816 27.7909 7.72729 30 7.72729C32.2091 7.72729 34 9.51816 34 11.7273V19.7273C34 21.9364 32.2091 23.7273 30 23.7273C27.7909 23.7273 26 21.9364 26 19.7273V11.7273Z" fill="#FFFFFF"/>
<path d="M38 13.7273C38 11.5182 39.7909 9.72729 42 9.72729C44.2091 9.72729 46 11.5182 46 13.7273V17.7273C46 19.9364 44.2091 21.7273 42 21.7273C39.7909 21.7273 38 19.9364 38 17.7273V13.7273Z" fill="#F1C40F"/>
</svg>
