<svg width="90" height="91" viewBox="0 0 90 91" fill="none" xmlns="http://www.w3.org/2000/svg">
<path d="M30.6017 90.4298C26.9914 90.3725 23.3811 89.6848 19.7708 88.3668C16.1605 87.0487 12.8653 84.8281 9.88539 81.7049C6.90544 78.553 4.51289 74.298 2.70774 68.9398C0.902579 63.553 0 56.7908 0 48.6533C0 40.8596 0.730659 33.9542 2.19198 27.937C3.6533 21.8911 5.77364 16.8052 8.55301 12.6791C11.3324 8.52436 14.6848 5.37249 18.6103 3.22349C22.5645 1.0745 27.0201 0 31.9771 0C36.9054 0 41.2894 0.98854 45.1289 2.96562C48.9971 4.91404 52.149 7.6361 54.5845 11.1318C57.0201 14.6275 58.596 18.6533 59.3123 23.2092H48.8252C47.851 19.255 45.9599 15.9742 43.1519 13.3668C40.3438 10.7593 36.6189 9.45559 31.9771 9.45559C25.1576 9.45559 19.7851 12.4212 15.8596 18.3524C11.9628 24.2837 10 32.6075 9.97135 43.3238H10.659C12.2636 40.8883 14.1691 38.8109 16.3754 37.0917C18.6103 35.3438 21.0745 33.9971 23.7679 33.0516C26.4613 32.106 29.3123 31.6332 32.3209 31.6332C37.3639 31.6332 41.9771 32.894 46.1605 35.4155C50.3438 37.9083 53.6963 41.361 56.2178 45.7736C58.7393 50.1576 60 55.1862 60 60.8596C60 66.3037 58.7822 71.2894 56.3467 75.8166C53.9112 80.3152 50.4871 83.8969 46.0745 86.5616C41.6905 89.1977 36.533 90.4871 30.6017 90.4298ZM30.6017 80.9742C34.212 80.9742 37.4499 80.0716 40.3152 78.2665C43.2092 76.4613 45.4871 74.0401 47.149 71.0029C48.8395 67.9656 49.6848 64.5845 49.6848 60.8596C49.6848 57.2206 48.8682 53.9112 47.235 50.9312C45.6304 47.9226 43.4097 45.5301 40.5731 43.7536C37.765 41.9771 34.5559 41.0888 30.9456 41.0888C28.2235 41.0888 25.6877 41.6332 23.3381 42.7221C20.9885 43.7822 18.9255 45.2436 17.149 47.106C15.4011 48.9685 14.0258 51.1031 13.0229 53.51C12.0201 55.8883 11.5186 58.3954 11.5186 61.0315C11.5186 64.5272 12.3352 67.7937 13.9685 70.8309C15.6304 73.8682 17.894 76.318 20.7593 78.1805C23.6533 80.043 26.9341 80.9742 30.6017 80.9742Z" fill="#1ABC9C"/>
</svg>
