<svg width="90" height="90" viewBox="0 0 90 90" fill="none" xmlns="http://www.w3.org/2000/svg">
<path d="M0 90V82.1965L29.3064 50.1156C32.7457 46.3584 35.578 43.0925 37.8035 40.3179C40.0289 37.5145 41.6763 34.8844 42.7457 32.4277C43.8439 29.9422 44.3931 27.341 44.3931 24.6243C44.3931 21.5029 43.6416 18.8006 42.1387 16.5173C40.6647 14.2341 38.6416 12.4711 36.0694 11.2283C33.4971 9.98555 30.6069 9.36416 27.3988 9.36416C23.9884 9.36416 21.0116 10.0723 18.4682 11.4884C15.9538 12.8757 14.0029 14.8266 12.6156 17.341C11.2572 19.8555 10.578 22.8035 10.578 26.185H0.34682C0.34682 20.9827 1.54624 16.4162 3.94509 12.4856C6.34393 8.55491 9.60983 5.49133 13.7428 3.2948C17.9046 1.09827 22.5723 0 27.7457 0C32.948 0 37.5578 1.09827 41.5751 3.2948C45.5925 5.49133 48.7428 8.45376 51.026 12.1821C53.3092 15.9104 54.4509 20.0578 54.4509 24.6243C54.4509 27.8902 53.8584 31.0838 52.6734 34.2052C51.5173 37.2977 49.4942 40.7514 46.604 44.5665C43.7428 48.3526 39.7688 52.9769 34.6821 58.4393L14.7399 79.7688V80.4624H56.0116V90H0Z" fill="#1ABC9C"/>
</svg>
