<svg width="90" height="90" viewBox="0 0 90 90" fill="none" xmlns="http://www.w3.org/2000/svg">
<path d="M52.1171 63.1159C52.3601 62.8591 52.5302 62.5422 52.6099 62.1978C52.6896 61.8534 52.676 61.494 52.5705 61.1566C52.465 60.8192 52.2714 60.516 52.0097 60.2784C51.748 60.0407 51.4277 59.8772 51.0817 59.8046C50.2174 59.6224 49.4173 59.2132 48.7638 58.619C48.1103 58.0249 47.6269 57.2672 47.3635 56.4242C47.1002 55.5811 47.0663 54.683 47.2654 53.8225C47.4645 52.962 47.8893 52.1701 48.4962 51.5284C49.1031 50.8866 49.8701 50.4183 50.7182 50.1715C51.5663 49.9247 52.4648 49.9085 53.3213 50.1245C54.1777 50.3404 54.9611 50.7808 55.5908 51.4002C56.2205 52.0196 56.6737 52.7956 56.9037 53.6484C56.9956 53.9897 57.1769 54.3004 57.4288 54.5483C57.6808 54.7963 57.9943 54.9726 58.3371 55.059C58.6799 55.1454 59.0395 55.1388 59.3789 55.0399C59.7183 54.941 60.0252 54.7534 60.2679 54.4964L63.5158 51.0589C63.9486 50.601 64.4674 50.2329 65.0426 49.9755C65.6177 49.7182 66.2379 49.5766 66.8678 49.5589C67.4976 49.5412 68.1248 49.6478 68.7134 49.8725C69.3021 50.0972 69.8407 50.4357 70.2986 50.8685L73.7361 54.1184C73.9931 54.3611 74.1808 54.668 74.2796 55.0074C74.3785 55.3468 74.3851 55.7064 74.2987 56.0492C74.2123 56.392 74.036 56.7055 73.7881 56.9575C73.5401 57.2094 73.2294 57.3907 72.8881 57.4826C72.0354 57.7129 71.2595 58.1664 70.6403 58.7963C70.0211 59.4262 69.5811 60.2097 69.3654 61.0662C69.1497 61.9227 69.1662 62.8213 69.4133 63.6693C69.6603 64.5173 70.1289 65.2841 70.7709 65.8908C71.4128 66.4975 72.2048 66.9221 73.0654 67.1209C73.926 67.3197 74.8241 67.2855 75.667 67.0218C76.51 66.7582 77.2675 66.2746 77.8615 65.6209C78.4554 64.9671 78.8644 64.1669 79.0462 63.3026C79.1188 62.9566 79.2824 62.6363 79.52 62.3746C79.7577 62.1129 80.0608 61.9193 80.3982 61.8138C80.7356 61.7083 81.0951 61.6947 81.4395 61.7744C81.7839 61.8541 82.1008 62.0242 82.3575 62.2672L85.7931 65.5171C86.251 65.95 86.6191 66.4688 86.8765 67.0439C87.1339 67.619 87.2754 68.2392 87.2931 68.8691C87.3108 69.4989 87.2042 70.1261 86.9795 70.7147C86.7548 71.3034 86.4164 71.842 85.9835 72.2999L82.7336 75.7374C82.4906 75.9942 82.3205 76.3111 82.2408 76.6555C82.1611 76.9999 82.1747 77.3594 82.2802 77.6967C82.3857 78.0341 82.5793 78.3373 82.841 78.575C83.1027 78.8126 83.423 78.9762 83.769 79.0488C84.6333 79.2309 85.4334 79.6401 86.0869 80.2343C86.7404 80.8285 87.2238 81.5861 87.4872 82.4292C87.7505 83.2723 87.7844 84.1703 87.5853 85.0308C87.3862 85.8913 86.9614 86.6832 86.3545 87.325C85.7476 87.9667 84.9806 88.4351 84.1325 88.6818C83.2844 88.9286 82.3859 88.9448 81.5294 88.7289C80.673 88.5129 79.8896 88.0726 79.2599 87.4532C78.6302 86.8338 78.177 86.0577 77.947 85.205C77.8551 84.8636 77.6738 84.553 77.4219 84.305C77.1699 84.057 76.8564 83.8808 76.5136 83.7944C76.1708 83.708 75.8112 83.7145 75.4718 83.8134C75.1324 83.9123 74.8255 84.0999 74.5828 84.3569L71.3349 87.7944C70.9021 88.2523 70.3833 88.6204 69.8081 88.8778C69.233 89.1352 68.6128 89.2767 67.983 89.2944C67.3531 89.3121 66.7259 89.2055 66.1373 88.9808C65.5486 88.7561 65.01 88.4177 64.5521 87.9848L61.1146 84.7349C60.8576 84.4922 60.67 84.1853 60.5711 83.8459C60.4722 83.5065 60.4656 83.1469 60.552 82.8041C60.6384 82.4613 60.8147 82.1478 61.0626 81.8959C61.3106 81.6439 61.6213 81.4626 61.9626 81.3707C62.8153 81.1404 63.5912 80.6869 64.2104 80.0571C64.8296 79.4272 65.2696 78.6436 65.4853 77.7871C65.701 76.9306 65.6845 76.0321 65.4374 75.1841C65.1904 74.3361 64.7218 73.5692 64.0798 72.9625C63.4379 72.3559 62.6459 71.9313 61.7853 71.7325C60.9247 71.5337 60.0266 71.5678 59.1837 71.8315C58.3407 72.0951 57.5832 72.5787 56.9892 73.2325C56.3953 73.8862 55.9863 74.6864 55.8045 75.5508C55.7319 75.8967 55.5683 76.2171 55.3307 76.4788C55.093 76.7405 54.7899 76.934 54.4525 77.0395C54.1151 77.145 53.7556 77.1586 53.4112 77.0789C53.0668 76.9993 52.7499 76.8291 52.4932 76.5862L49.0576 73.3362C48.5997 72.9034 48.2316 72.3846 47.9742 71.8094C47.7168 71.2343 47.5753 70.6141 47.5576 69.9843C47.5399 69.3544 47.6465 68.7273 47.8712 68.1386C48.0959 67.5499 48.4343 67.0113 48.8672 66.5534L52.1171 63.1159Z" fill="#1ABC9C" fill-opacity="0.4"/>
<path d="M50.5932 22.7099C50.9461 23.0631 51.3868 23.3159 51.87 23.4421C52.3531 23.5682 52.8611 23.5633 53.3417 23.4277C53.8222 23.2921 54.2579 23.0308 54.6039 22.6707C54.9498 22.3106 55.1934 21.8648 55.3096 21.3792C55.6011 20.1661 56.2106 19.0526 57.0754 18.1534C57.9402 17.2542 59.0291 16.6018 60.2299 16.2634C61.4307 15.9249 62.7 15.9126 63.9071 16.2278C65.1142 16.543 66.2155 17.1743 67.0976 18.0566C67.9796 18.939 68.6105 20.0405 68.9253 21.2477C69.2401 22.4549 69.2274 23.7242 68.8885 24.9249C68.5497 26.1256 67.8969 27.2143 66.9974 28.0788C66.0979 28.9433 64.9843 29.5524 63.7711 29.8435C63.2855 29.9597 62.8396 30.2033 62.4796 30.5492C62.1195 30.8952 61.8582 31.3309 61.7226 31.8114C61.587 32.292 61.5821 32.8 61.7082 33.2831C61.8344 33.7662 62.0871 34.207 62.4404 34.5599L67.1652 39.2819C67.7946 39.9112 68.2938 40.6583 68.6344 41.4806C68.975 42.3028 69.1503 43.1841 69.1503 44.0741C69.1503 44.9641 68.975 45.8454 68.6344 46.6676C68.2938 47.4899 67.7946 48.237 67.1652 48.8663L62.4404 53.5911C62.0875 53.9444 61.6468 54.1971 61.1636 54.3233C60.6805 54.4495 60.1725 54.4445 59.6919 54.3089C59.2114 54.1733 58.7757 53.912 58.4298 53.5519C58.0838 53.1919 57.8402 52.746 57.724 52.2604C57.4326 51.0473 56.8231 49.9339 55.9582 49.0347C55.0934 48.1355 54.0045 47.483 52.8037 47.1446C51.6029 46.8061 50.3336 46.7939 49.1265 47.1091C47.9194 47.4243 46.8181 48.0555 45.9361 48.9379C45.054 49.8202 44.4231 50.9217 44.1083 52.1289C43.7935 53.3361 43.8062 54.6054 44.1451 55.8061C44.4839 57.0068 45.1367 58.0955 46.0362 58.96C46.9357 59.8245 48.0494 60.4337 49.2625 60.7247C49.7481 60.8409 50.194 61.0845 50.554 61.4305C50.9141 61.7764 51.1754 62.2121 51.311 62.6926C51.4466 63.1732 51.4516 63.6812 51.3254 64.1643C51.1992 64.6475 50.9465 65.0882 50.5932 65.4411L45.8684 70.1631C45.2391 70.7924 44.492 71.2917 43.6697 71.6323C42.8475 71.9729 41.9662 72.1482 41.0762 72.1482C40.1862 72.1482 39.3049 71.9729 38.4827 71.6323C37.6604 71.2917 36.9133 70.7924 36.284 70.1631L31.5592 65.4383C31.2063 65.085 30.7655 64.8323 30.2824 64.7061C29.7993 64.5799 29.2913 64.5849 28.8107 64.7205C28.3302 64.8561 27.8945 65.1174 27.5485 65.4775C27.2026 65.8375 26.959 66.2834 26.8428 66.769C26.5513 67.9821 25.9418 69.0955 25.077 69.9947C24.2122 70.8939 23.1233 71.5463 21.9225 71.8848C20.7217 72.2233 19.4524 72.2355 18.2453 71.9203C17.0381 71.6051 15.9369 70.9739 15.0548 70.0915C14.1728 69.2092 13.5419 68.1077 13.2271 66.9005C12.9123 65.6933 12.925 64.424 13.2638 63.2233C13.6027 62.0226 14.2555 60.9339 15.155 60.0694C16.0545 59.2049 17.1681 58.5957 18.3813 58.3047C18.8669 58.1885 19.3127 57.9449 19.6728 57.5989C20.0329 57.253 20.2942 56.8173 20.4298 56.3368C20.5654 55.8562 20.5703 55.3482 20.4442 54.8651C20.318 54.3819 20.0653 53.9412 19.712 53.5883L14.9872 48.8663C14.3578 48.237 13.8586 47.4899 13.518 46.6676C13.1774 45.8454 13.0021 44.9641 13.0021 44.0741C13.0021 43.1841 13.1774 42.3028 13.518 41.4806C13.8586 40.6583 14.3578 39.9112 14.9872 39.2819L19.712 34.5571C20.0649 34.2038 20.5056 33.9511 20.9887 33.8249C21.4719 33.6987 21.9799 33.7037 22.4604 33.8393C22.941 33.9749 23.3767 34.2362 23.7226 34.5962C24.0686 34.9563 24.3122 35.4021 24.4284 35.8878C24.7198 37.1008 25.3293 38.2143 26.1942 39.1135C27.059 40.0127 28.1479 40.6651 29.3487 41.0036C30.5495 41.3421 31.8188 41.3543 33.0259 41.0391C34.233 40.7239 35.3343 40.0926 36.2163 39.2103C37.0984 38.328 37.7293 37.2265 38.0441 36.0193C38.3589 34.8121 38.3462 33.5427 38.0073 32.3421C37.6685 31.1414 37.0157 30.0527 36.1162 29.1882C35.2167 28.3236 34.103 27.7145 32.8899 27.4235C32.4043 27.3073 31.9584 27.0636 31.5984 26.7177C31.2383 26.3718 30.977 25.9361 30.8414 25.4555C30.7058 24.975 30.7008 24.4669 30.827 23.9838C30.9532 23.5007 31.2059 23.06 31.5592 22.7071L36.284 17.9851C36.9133 17.3557 37.6604 16.8565 38.4827 16.5159C39.3049 16.1753 40.1862 16 41.0762 16C41.9662 16 42.8475 16.1753 43.6697 16.5159C44.492 16.8565 45.2391 17.3557 45.8684 17.9851L50.5932 22.7099Z" fill="#2C3E50" stroke="#2C3E50" stroke-width="5.61477" stroke-linecap="round" stroke-linejoin="round"/>
</svg>
