<svg width="90" height="90" viewBox="0 0 90 90" fill="none" xmlns="http://www.w3.org/2000/svg">
<path d="M29.1103 90C23.5894 90 18.6679 89.052 14.346 87.1559C10.052 85.2598 6.63625 82.6248 4.09886 79.251C1.58935 75.8492 0.223067 71.9037 0 67.4145H10.5399C10.763 70.1749 11.711 72.5589 13.384 74.5665C15.057 76.5463 17.2459 78.0798 19.9506 79.1673C22.6553 80.2548 25.6527 80.7985 28.943 80.7985C32.6236 80.7985 35.8859 80.1572 38.73 78.8745C41.5741 77.5919 43.8048 75.8074 45.4221 73.5209C47.0393 71.2345 47.8479 68.5856 47.8479 65.5741C47.8479 62.4233 47.0672 59.6489 45.5057 57.251C43.9442 54.8251 41.6578 52.929 38.6464 51.5627C35.635 50.1964 31.9544 49.5133 27.6046 49.5133H20.7452V40.3118H27.6046C31.0063 40.3118 33.9899 39.6984 36.5551 38.4715C39.1483 37.2446 41.1698 35.5158 42.6198 33.2852C44.0976 31.0545 44.8365 28.4335 44.8365 25.4221C44.8365 22.5222 44.1952 19.9987 42.9126 17.8517C41.6299 15.7047 39.8175 14.0317 37.4753 12.8327C35.161 11.6337 32.4284 11.0342 29.2776 11.0342C26.3219 11.0342 23.5336 11.5779 20.9125 12.6654C18.3194 13.725 16.2003 15.2725 14.5551 17.308C12.91 19.3156 12.0177 21.7414 11.8783 24.5856H1.8403C2.0076 20.0963 3.35995 16.1648 5.89734 12.7909C8.43473 9.3891 11.7529 6.74018 15.8517 4.84411C19.9785 2.94804 24.5095 2 29.4449 2C34.7427 2 39.2877 3.07351 43.0798 5.22053C46.872 7.33967 49.7858 10.142 51.8213 13.6274C53.8568 17.1128 54.8745 20.8771 54.8745 24.9202C54.8745 29.744 53.6058 33.8568 51.0684 37.2586C48.5589 40.6603 45.1432 43.0165 40.8213 44.327V44.9962C46.2307 45.8885 50.455 48.1888 53.4943 51.8973C56.5336 55.5779 58.0532 60.1369 58.0532 65.5741C58.0532 70.2307 56.7845 74.4132 54.2472 78.1217C51.7376 81.8023 48.308 84.7022 43.9582 86.8213C39.6084 88.9404 34.6591 90 29.1103 90Z" fill="#1ABC9C"/>
</svg>
