<svg width="90" height="90" viewBox="0 0 90 90" fill="none" xmlns="http://www.w3.org/2000/svg">
<path d="M9.84715 52.1981C9.12161 52.2005 8.41026 51.9971 7.79574 51.6114C7.18122 51.2256 6.68877 50.6735 6.37559 50.019C6.0624 49.3645 5.94135 48.6346 6.02649 47.9141C6.11163 47.1935 6.39947 46.512 6.85657 45.9485L44.8139 6.84098C45.0986 6.51233 45.4866 6.29024 45.9142 6.21116C46.3418 6.13209 46.7835 6.20073 47.167 6.40583C47.5504 6.61092 47.8527 6.94027 48.0243 7.33982C48.1959 7.73937 48.2265 8.18539 48.1112 8.60465L40.7498 31.6858C40.5327 32.2667 40.4598 32.8917 40.5373 33.507C40.6148 34.1223 40.8405 34.7096 41.1949 35.2186C41.5493 35.7275 42.0218 36.1429 42.572 36.4291C43.1222 36.7153 43.7336 36.8638 44.3538 36.8618H71.1923C71.9178 36.8593 72.6292 37.0627 73.2437 37.4485C73.8582 37.8342 74.3507 38.3864 74.6639 39.0408C74.977 39.6953 75.0981 40.4252 75.0129 41.1457C74.9278 41.8663 74.64 42.5478 74.1829 43.1113L36.2256 82.2188C35.9408 82.5475 35.5528 82.7696 35.1253 82.8486C34.6977 82.9277 34.2559 82.8591 33.8725 82.654C33.489 82.4489 33.1867 82.1195 33.0152 81.72C32.8436 81.3204 32.8129 80.8744 32.9283 80.4552L40.2897 57.3741C40.5067 56.7931 40.5796 56.1682 40.5021 55.5528C40.4246 54.9375 40.199 54.3502 39.8446 53.8412C39.4902 53.3323 39.0176 52.9169 38.4674 52.6307C37.9172 52.3445 37.3058 52.196 36.6856 52.1981H9.84715Z" fill="#F1C40F" stroke="#F1C40F" stroke-width="7.66814" stroke-linecap="round" stroke-linejoin="round"/>
<g filter="url(#filter0_f_1421_6383)">
<path d="M30.1038 62.1268C29.5184 62.1288 28.9445 61.9646 28.4488 61.6534C27.953 61.3422 27.5557 60.8968 27.303 60.3687C27.0503 59.8407 26.9527 59.2519 27.0214 58.6706C27.0901 58.0893 27.3223 57.5394 27.6911 57.0848L58.314 25.5339C58.5437 25.2688 58.8567 25.0896 59.2017 25.0258C59.5466 24.962 59.903 25.0174 60.2124 25.1828C60.5217 25.3483 60.7656 25.614 60.904 25.9364C61.0425 26.2587 61.0672 26.6185 60.9742 26.9568L55.0352 45.578C54.86 46.0467 54.8012 46.5509 54.8638 47.0473C54.9263 47.5437 55.1083 48.0176 55.3943 48.4282C55.6802 48.8388 56.0614 49.1739 56.5053 49.4048C56.9492 49.6357 57.4425 49.7555 57.9428 49.7539H79.5954C80.1807 49.7519 80.7546 49.916 81.2504 50.2272C81.7462 50.5384 82.1435 50.9839 82.3961 51.5119C82.6488 52.0399 82.7465 52.6287 82.6778 53.21C82.6091 53.7914 82.3769 54.3412 82.0081 54.7958L51.3852 86.3467C51.1555 86.6119 50.8424 86.791 50.4975 86.8548C50.1525 86.9186 49.7961 86.8632 49.4868 86.6978C49.1774 86.5323 48.9335 86.2666 48.7951 85.9443C48.6567 85.6219 48.632 85.2621 48.725 84.9238L54.664 66.3026C54.8391 65.8339 54.8979 65.3297 54.8354 64.8333C54.7728 64.3369 54.5908 63.863 54.3049 63.4524C54.019 63.0418 53.6377 62.7067 53.1938 62.4758C52.75 62.2449 52.2567 62.1251 51.7563 62.1268H30.1038Z" fill="#F1C40F" fill-opacity="0.4"/>
</g>
<defs>
<filter id="filter0_f_1421_6383" x="24.6145" y="22.6145" width="60.4702" height="66.6514" filterUnits="userSpaceOnUse" color-interpolation-filters="sRGB">
<feFlood flood-opacity="0" result="BackgroundImageFix"/>
<feBlend mode="normal" in="SourceGraphic" in2="BackgroundImageFix" result="shape"/>
<feGaussianBlur stdDeviation="1.19275" result="effect1_foregroundBlur_1421_6383"/>
</filter>
</defs>
</svg>
