<svg width="90" height="90" viewBox="0 0 90 90" fill="none" xmlns="http://www.w3.org/2000/svg">
<path d="M84.6785 50.6892C86.4331 67.8199 75.3189 77.6134 61.575 84.0411C60.8545 84.3705 60.0426 84.4414 59.2759 84.242C44.4836 80.7717 31.6148 73.4345 29.8602 56.3038L27.4038 32.3208C27.3108 31.4122 27.5825 30.5038 28.1592 29.7954C28.7359 29.0871 29.5704 28.6369 30.479 28.5438C37.3313 27.842 45.4756 22.8533 50.9037 17.035C51.566 16.3405 52.4544 15.9052 53.4091 15.8074C54.3638 15.7096 55.322 15.9558 56.1114 16.5016C62.644 21.1295 71.5927 24.3328 78.445 23.631C79.3537 23.5379 80.2621 23.8096 80.9704 24.3863C81.6788 24.963 82.129 25.7975 82.2221 26.7062L84.6785 50.6892Z" fill="#1ABC9C" fill-opacity="0.4"/>
<path d="M73.6785 45.6892C75.4331 62.8199 64.3189 72.6134 50.575 79.0411C49.8545 79.3705 49.0426 79.4414 48.2759 79.242C33.4836 75.7717 20.6148 68.4345 18.8602 51.3038L16.4038 27.3208C16.3108 26.4122 16.5825 25.5038 17.1592 24.7954C17.7359 24.0871 18.5704 23.6369 19.479 23.5438C26.3313 22.842 34.4756 17.8533 39.9037 12.035C40.566 11.3405 41.4544 10.9052 42.4091 10.8074C43.3638 10.7096 44.322 10.9558 45.1114 11.5016C51.644 16.1295 60.5927 19.3328 67.445 18.631C68.3537 18.5379 69.2621 18.8096 69.9704 19.3863C70.6788 19.963 71.129 20.7975 71.2221 21.7062L73.6785 45.6892Z" fill="#1ABC9C" stroke="#1ABC9C" stroke-width="6.88813" stroke-linecap="round" stroke-linejoin="round"/>
<g clip-path="url(#clip0_1421_6391)">
<path d="M30.8927 26.5835C31.3303 28.7314 31.0184 30.9645 30.0089 32.9102C28.9995 34.856 27.3534 36.3969 25.3454 37.2759C23.3373 38.155 21.0886 38.3191 18.9742 37.7408C16.8598 37.1625 15.0075 35.8768 13.7263 34.0982C12.4451 32.3196 11.8124 30.1554 11.9336 27.9668C12.0549 25.7781 12.9228 23.6971 14.3927 22.0709C15.8626 20.4447 17.8455 19.3715 20.0108 19.0304C22.1762 18.6892 24.393 19.1007 26.2917 20.1962" stroke="#2C3E50" stroke-width="1.91667" stroke-linecap="round" stroke-linejoin="round"/>
<path d="M18.625 27.5418L21.5 30.4168L31.0833 20.8335" stroke="#2C3E50" stroke-width="1.91667" stroke-linecap="round" stroke-linejoin="round"/>
</g>
<defs>
<clipPath id="clip0_1421_6391">
<rect width="23" height="23" fill="white" transform="translate(10 17)"/>
</clipPath>
</defs>
</svg>
