<svg width="190" height="90" viewBox="0 0 190 90" fill="none" xmlns="http://www.w3.org/2000/svg">
<g clip-path="url(#clip0_1421_6592)">
<path fill-rule="evenodd" clip-rule="evenodd" d="M237.719 15.8847H242.975L242.943 24.1882H244.085L247.085 15.8847H252.773L248.69 26.8547L253.361 38.998H247.208L244.181 29.7034H242.943L242.975 38.998H237.719V15.8847ZM220.011 15.8847H225.235V24.219H228.976V15.8833H234.196V38.9967H228.976V29.7329H225.235V38.9967H220.011V15.8847ZM201.804 39.0275H207.244L207.895 35.0311H211.631L212.283 39.0275H217.722L213.147 15.9181H206.408L201.804 39.0275ZM209.777 22.9159L210.767 29.9498H208.756L209.777 22.9159ZM187.211 38.998H193.579C194.969 38.998 200.751 38.4074 200.782 31.4043C200.782 25.5248 196.302 24.5003 193.394 24.5003H192.437V21.432H199.514V15.886H187.211V38.998ZM192.437 34.3494V29.1155H193.21C193.858 29.1155 195.529 29.1449 195.529 31.5302C195.529 33.9503 193.858 34.3494 193.21 34.3494H192.437ZM166.473 15.8847H171.017L175.031 21.3369L179.085 15.8847H183.598V38.998H178.245V24.9007L175.031 28.928L171.82 24.8994V38.998H166.473V15.8847ZM155.436 39.278C161.773 39.278 163.904 33.3262 163.904 27.4119C163.904 21.4963 161.773 15.5458 155.436 15.5458C149.101 15.5458 146.968 21.4963 146.968 27.4119C146.968 33.3262 149.101 39.278 155.436 39.278ZM155.436 33.6677C153.547 33.6677 152.594 31.4713 152.594 27.4105C152.594 23.3512 153.547 21.1521 155.436 21.1521C157.325 21.1521 158.278 23.3512 158.278 27.4119C158.278 31.4713 157.325 33.6677 155.436 33.6677ZM131.48 38.998H136.827V31.3775H138.623C143.906 31.3775 145.546 26.6043 145.546 23.5641C145.546 20.5922 143.657 15.8847 138.623 15.8847H131.48V38.998ZM136.827 20.9659H138.096C139.302 20.9659 140.076 21.7092 140.076 23.6311C140.076 26.1088 138.775 26.2922 138.096 26.2922H136.827V20.9659ZM113.831 15.8847H128.42V38.998H123.072V21.4601H119.178V38.9967H113.831V15.8847ZM102.857 24.8405C103.72 24.8405 105.3 24.282 105.3 22.5784C105.3 20.5655 103.477 20.4382 102.948 20.4382C102.333 20.4382 101.159 20.5347 100.013 21.0918L99.9517 16.0695C101.775 15.6061 103.075 15.4815 104.617 15.4815C109.01 15.4815 110.957 18.5512 110.957 21.5525C110.957 24.4681 109.286 26.2293 107.649 26.9137V27.1293C109.227 27.6302 111.327 29.1436 111.327 32.6766C111.327 37.048 108.299 39.4614 104.402 39.4614C102.331 39.4333 100.972 39.1534 99.3327 38.2561L99.4263 33.4507C100.941 34.1043 101.961 34.1646 102.982 34.1646C104.714 34.1646 105.391 32.8922 105.391 31.9668C105.391 30.6637 104.557 29.7972 102.735 29.7972H100.569V24.8418H102.857V24.8405ZM81.8415 38.998H87.249L87.9308 34.9989H91.6699L92.3183 38.998H97.7258L93.1512 15.8847H86.4135L81.8415 38.998ZM89.7823 22.857L90.8037 29.9204H88.7623L89.7823 22.857ZM71.4863 15.8847H82.4551V21.6463H76.9246V38.998H71.4863V15.8847ZM26.7542 0.513672C11.9955 0.513672 0 12.5271 0 27.3128C0 42.0704 11.9968 54.0851 26.7542 54.0851C41.4795 54.0851 53.4737 42.0704 53.4737 27.3128C53.4737 12.5271 41.4795 0.513672 26.7542 0.513672ZM26.7542 52.7458C12.7388 52.7458 1.33684 41.3338 1.33684 27.3128C1.33684 13.2704 12.7334 1.85296 26.7542 1.85296C40.747 1.85296 52.1368 13.273 52.1368 27.3128C52.1368 41.3311 40.7429 52.7458 26.7542 52.7458Z" fill="#2C3E50"/>
<path fill-rule="evenodd" clip-rule="evenodd" d="M15.7673 11.2782C22.2256 8.39872 30.1103 8.58622 34.3414 10.4746C35.6715 11.0947 36.5659 11.4697 36.971 12.209C32.5794 11.0304 30.6945 10.8175 27.0182 10.9072C21.7911 11.0009 14.8369 13.0742 12.1792 14.6585L11.0095 16.117C14.8369 13.8483 21.9783 12.367 25.938 12.2411C30.3576 12.1809 33.7853 12.584 36.9402 13.7291C36.7531 14.5326 36.352 14.9371 35.6729 15.3416C23.0611 13.1398 15.6109 15.7407 8.87187 20.1402L8.37991 21.5947C15.8916 16.4251 25.0998 15.0014 33.9738 16.5483C30.7894 17.6639 26.9874 17.9117 23.8044 18.6496C21.0853 19.271 19.6321 19.4585 16.0106 20.6693C12.3383 21.8773 10.1686 23.1161 8.81171 24.6965C8.16201 25.4425 7.66738 26.3076 7.54171 27.2344C7.48423 27.7902 7.51498 28.2898 7.70214 28.788C7.84919 29.2206 8.19142 29.6532 8.5644 30.0871C8.13394 30.8291 7.75695 31.7934 8.37991 32.909C8.65664 33.4313 9.36784 33.9576 10.051 34.4585L9.8598 35.0117C9.76622 35.6666 9.67665 36.438 10.1098 37.0876C10.8491 38.2648 11.7461 39.0416 13.1671 39.7849C13.3864 40.7465 13.7233 41.5179 14.4652 42.2036C16.0414 43.6567 19.5679 46.4451 25.8404 46.8804C30.5421 47.1925 33.9096 45.7648 35.1783 45.1447L36.7223 44.3411C34.0967 45.3911 29.6771 46.0126 26.057 45.7018C20.8032 45.2679 16.1082 41.8313 15.52 40.8376C15.7031 40.9581 15.9518 41.0532 16.1643 41.1483C22.3178 44.1215 30.2613 45.734 40.432 41.5822L41.2702 40.7759C32.0233 43.6554 23.9287 43.5657 15.2393 39.0108C15.3342 38.5782 15.52 38.2005 15.9184 37.8978C18.1429 38.8822 20.2778 39.6925 22.8753 40.2175C25.9046 40.7759 29.3657 40.9018 32.2118 40.7759C35.086 40.6527 40.7716 39.2277 43.4627 37.8027C43.7086 37.5871 43.8316 37.2175 44.0776 36.967C38.8265 38.8822 32.5808 39.7849 28.8109 39.5036C25.1319 39.2277 21.8593 38.7911 17.5279 36.8103C18.3608 36.4715 19.2271 36.1916 20.0933 35.9398C22.9368 36.8103 25.8404 37.3326 29.2721 37.4907C32.6757 37.646 40.6179 36.3791 45.6243 33.3429C45.7808 32.909 45.9345 32.4402 45.9345 32.4402C45.9345 32.4402 38.9789 36.1634 31.0995 36.1634C27.4192 36.1634 25.164 35.6331 23.4956 35.2313C27.2027 34.5483 31.8722 33.9898 37.1234 32.6599C39.781 31.9768 43.0589 30.4259 44.5428 29.1268C45.8102 27.9777 46.8008 26.4898 46.4625 24.9777C46.3957 24.5706 45.8409 23.6157 45.1605 23.2715C45.8102 22.4358 45.7487 21.7219 45.6578 21.1059C45.5936 20.6344 45.377 20.1121 45.103 19.6487C44.658 19.037 44.0867 18.5286 43.4279 18.1581C43.5564 17.5077 43.4701 16.8331 43.1819 16.2362C42.5336 15.1206 41.3611 14.163 39.3505 13.1398C39.2583 12.7353 39.0083 12.209 38.5792 11.684C36.0459 9.17416 31.9017 7.96613 28.4071 7.90318C28.2133 7.89882 28.0195 7.89659 27.8256 7.89648C23.7389 7.89648 20.4583 8.81657 18.4276 9.76613C17.3715 10.2242 16.5681 10.7224 15.7673 11.2782ZM39.1005 14.6585C39.9695 15.217 40.9588 16.0541 41.0791 16.9219C40.154 16.5764 39.1647 16.2121 38.2075 15.9617C38.5177 15.6201 38.9776 15.0938 39.1005 14.6585ZM34.4644 18.5317C35.5191 18.1259 36.2263 17.696 36.848 17.1978C38.2343 17.5675 39.5337 18.0349 40.5898 18.4969C40.408 18.7688 39.3492 19.7492 39.0257 19.7492C39.0091 19.7503 38.9925 19.747 38.9776 19.7398C37.4977 19.334 36.1996 18.8384 34.4644 18.5317ZM42.7822 19.7693C43.6151 20.4818 43.861 20.9773 43.4613 21.7527C42.9079 21.3509 42.3157 21.1326 41.67 20.8233C42.0683 20.5126 42.4413 20.1751 42.7822 19.7693ZM17.0961 22.6219C20.9596 21.4701 25.4728 20.609 29.5555 20.1121C32.3629 19.7693 33.8508 20.0826 36.5097 20.7938C29.6785 22.6206 22.9368 23.2059 16.5066 25.0983C11.3236 26.6076 9.94803 28.5081 9.92664 28.5081C7.63529 25.3474 15.5788 23.0893 17.0961 22.6219ZM20.7457 26.4295C26.4607 25.1907 31.7787 24.4179 33.9724 23.8608C36.6327 23.2059 38.4869 22.5898 39.781 21.9724C39.8438 21.8786 41.9453 22.8992 42.1606 23.1429C41.4521 23.7349 40.4655 24.2331 39.3799 24.6001C36.1354 25.7786 30.2333 27.0161 27.1117 27.4889C23.9581 28.0126 21.3259 28.413 17.8381 29.3384C15.8261 29.8701 14.4652 30.4889 13.476 31.1411C12.734 30.7059 12.3022 30.584 11.6231 30.0242C14.0334 27.9777 18.9503 26.8326 20.7444 26.4295H20.7457ZM19.3166 31.4518C24.7576 30.1139 29.5528 29.8688 36.1675 28.0742C39.3492 27.2344 41.6686 26.3331 43.1231 25.2242C43.337 25.034 43.5522 24.8813 43.7715 24.6965C45.6872 27.6697 38.4856 29.9626 33.5674 31.0206C30.8469 31.5724 27.0757 32.2527 25.8391 32.4737C22.6307 33.0001 21.5732 33.28 19.3487 33.9295C18.2365 33.4942 17.1229 33.0295 16.1069 32.5018C17.1229 32.0693 18.2365 31.7277 19.3153 31.4532L19.3166 31.4518ZM11.7768 32.4402C11.5603 32.6277 11.2809 32.8152 11.0656 33.0295C10.5737 32.7483 10.0764 32.1349 10.3223 31.5724C10.817 31.8858 11.1873 32.1349 11.7768 32.4402ZM14.0321 33.592C14.9599 34.0259 15.917 34.4224 16.8127 34.8282C16.2103 35.0488 15.6317 35.3297 15.0855 35.6666C14.3477 35.2633 13.6159 34.8489 12.8904 34.4237C13.1992 34.1451 13.5989 33.8679 14.0321 33.5907V33.592ZM13.6645 36.8411C13.4465 37.1518 13.2901 37.3969 13.2006 37.7103C12.4252 37.0581 12.0522 36.5317 12.0856 35.9411C12.611 36.2826 13.1364 36.5599 13.6631 36.8411H13.6645Z" fill="#2C3E50"/>
</g>
<g clip-path="url(#clip1_1421_6592)">
<path fill-rule="evenodd" clip-rule="evenodd" d="M171.719 64.371H176.975L176.943 72.6746H178.085L181.085 64.371H186.773L182.69 75.3411L187.361 87.4844H181.208L178.181 78.1897H176.943L176.975 87.4844H171.719V64.371ZM154.011 64.371H159.235V72.7054H162.976V64.3696H168.196V87.483H162.976V78.2192H159.235V87.483H154.011V64.371ZM135.804 87.5138H141.244L141.895 83.5174H145.631L146.283 87.5138H151.722L147.147 64.4045H140.408L135.804 87.5138ZM143.777 71.4022L144.767 78.4362H142.756L143.777 71.4022ZM121.211 87.4844H127.579C128.969 87.4844 134.751 86.8937 134.782 79.8906C134.782 74.0112 130.302 72.9866 127.394 72.9866H126.437V69.9183H133.514V64.3723H121.211V87.4844ZM126.437 82.8357V77.6018H127.21C127.858 77.6018 129.529 77.6312 129.529 80.0165C129.529 82.4366 127.858 82.8357 127.21 82.8357H126.437ZM100.473 64.371H105.017L109.031 69.8232L113.085 64.371H117.598V87.4844H112.245V73.3871L109.031 77.4143L105.82 73.3857V87.4844H100.473V64.371ZM89.436 87.7643C95.7726 87.7643 97.9035 81.8125 97.9035 75.8982C97.9035 69.9826 95.7726 64.0321 89.436 64.0321C83.1007 64.0321 80.9684 69.9826 80.9684 75.8982C80.9684 81.8125 83.1007 87.7643 89.436 87.7643ZM89.436 82.154C87.547 82.154 86.5938 79.9576 86.5938 75.8969C86.5938 71.8375 87.547 69.6384 89.436 69.6384C91.3249 69.6384 92.2781 71.8375 92.2781 75.8982C92.2781 79.9576 91.3249 82.154 89.436 82.154ZM65.4798 87.4844H70.8271V79.8638H72.6225C77.9057 79.8638 79.546 75.0906 79.546 72.0504C79.546 69.0786 77.6571 64.371 72.6225 64.371H65.4798V87.4844ZM70.8271 69.4522H72.0958C73.3016 69.4522 74.0757 70.1955 74.0757 72.1174C74.0757 74.5951 72.7749 74.7786 72.0958 74.7786H70.8271V69.4522ZM47.8308 64.371H62.4197V87.4844H57.0724V69.9464H53.1781V87.483H47.8308V64.371ZM36.8566 73.3268C37.7202 73.3268 39.3004 72.7683 39.3004 71.0647C39.3004 69.0518 37.4769 68.9246 36.9475 68.9246C36.3326 68.9246 35.1589 69.021 34.0132 69.5781L33.9517 64.5558C35.7751 64.0924 37.0745 63.9679 38.6173 63.9679C43.0101 63.9679 44.9566 67.0375 44.9566 70.0388C44.9566 72.9545 43.2855 74.7156 41.6492 75.4V75.6156C43.2267 76.1165 45.3269 77.6299 45.3269 81.1629C45.3269 85.5344 42.2989 87.9478 38.402 87.9478C36.3313 87.9196 34.9717 87.6397 33.3327 86.7424L33.4263 81.937C34.9409 82.5906 35.9609 82.6509 36.9823 82.6509C38.7135 82.6509 39.3913 81.3786 39.3913 80.4531C39.3913 79.15 38.5571 78.2835 36.735 78.2835H34.5693V73.3281H36.8566V73.3268ZM15.8415 87.4844H21.249L21.9308 83.4853H25.6699L26.3183 87.4844H31.7258L27.1512 64.371H20.4135L15.8415 87.4844ZM23.7823 71.3433L24.8037 78.4067H22.7623L23.7823 71.3433ZM5.4863 64.371H16.4551V70.1326H10.9246V87.4844H5.4863V64.371ZM-39.2458 49C-54.0045 49 -66 61.0134 -66 75.7991C-66 90.5567 -54.0032 102.571 -39.2458 102.571C-24.5205 102.571 -12.5263 90.5567 -12.5263 75.7991C-12.5263 61.0134 -24.5205 49 -39.2458 49ZM-39.2458 101.232C-53.2612 101.232 -64.6632 89.8201 -64.6632 75.7991C-64.6632 61.7567 -53.2666 50.3393 -39.2458 50.3393C-25.253 50.3393 -13.8632 61.7594 -13.8632 75.7991C-13.8632 89.8174 -25.2571 101.232 -39.2458 101.232Z" fill="#2C3E50"/>
</g>
<defs>
<clipPath id="clip0_1421_6592">
<rect width="54" height="54" fill="white" transform="translate(0 0.428711)"/>
</clipPath>
<clipPath id="clip1_1421_6592">
<rect width="189" height="28" fill="white" transform="translate(0 62)"/>
</clipPath>
</defs>
</svg>
