<svg width="180" height="90" viewBox="0 0 180 90" fill="none" xmlns="http://www.w3.org/2000/svg">
<g clip-path="url(#clip0_1421_6585)">
<path d="M-39.3469 43.585C-35.0398 43.585 -33.6864 46.6518 -32.5509 49.7137C-32.0739 51.014 -20.8813 81.4417 -20.5448 82.355C-20.4552 82.6097 -20.5157 83.0279 -20.9104 83.1793C-21.3074 83.3284 -27.1228 85.5732 -27.4448 85.6934C-27.7668 85.8159 -28.1276 85.6381 -28.2438 85.3184C-28.3649 85.0036 -30.7787 78.37 -31.0498 77.6298H-47.6391C-47.9005 78.37 -50.3434 85.018 -50.4524 85.3184C-50.5637 85.6237 -50.9099 85.8303 -51.2537 85.6934C-51.5975 85.5588 -57.4348 83.3139 -57.7834 83.1793C-58.1175 83.0496 -58.27 82.6722 -58.1538 82.355C-57.7422 81.2157 -46.7191 51.276 -46.1574 49.7137C-45.063 46.6974 -43.6637 43.585 -39.3469 43.585ZM-59.0399 98.0302C-59.3886 98.0302 -59.667 98.3187 -59.667 98.6696V105.781C-59.667 106.132 -59.3886 106.416 -59.0399 106.416H-19.6708C-19.3149 106.416 -19.0364 106.132 -19.0364 105.781V98.6696C-19.0364 98.3187 -19.3149 98.0302 -19.6708 98.0302H-59.0399ZM-39.3856 53.5208L-44.9928 70.2368H-33.6864L-39.313 53.5208H-39.3856ZM44.7542 80.9297C43.9286 81.2061 43.3838 81.2734 42.735 81.2734C41.3937 81.2734 40.6504 80.7471 40.6504 79.3819C40.6504 77.9591 41.5947 77.4832 43.4492 77.4832C43.902 77.4832 44.3474 77.5481 44.5556 77.6202V78.6392C44.5556 79.7376 44.6162 80.4586 44.7542 80.9297ZM49.5213 82.5593C48.5311 81.0667 48.272 80.1871 48.272 78.3052V74.4837C48.272 72.4263 48.0299 71.6837 47.4827 70.9338C46.7201 69.8715 45.449 69.41 43.1127 69.41C41.4591 69.41 39.8539 69.5879 38.2996 69.982L38.8613 72.6979C39.912 72.5513 41.0136 72.4263 41.7908 72.4263C44.2724 72.4263 44.5556 72.782 44.5556 74.6303V75.3201C44.0036 75.1735 43.3838 75.0677 42.6648 75.0677C38.929 75.0677 36.9559 76.8823 36.9559 79.8866C36.9559 82.7035 39.0647 84.2393 41.6334 84.2393C42.5922 84.2393 43.5945 84.0638 44.3886 83.7418C44.868 83.5351 45.0762 83.4125 45.696 83.0135C46.0688 83.5519 46.8169 84.1023 47.122 84.2056L49.5213 82.5593ZM86.4742 80.9297C85.6438 81.2061 85.1087 81.2734 84.455 81.2734C83.1089 81.2734 82.356 80.7471 82.356 79.3819C82.356 77.9591 83.3123 77.4832 85.1717 77.4832C85.6244 77.4832 86.0723 77.5481 86.2757 77.6202V78.6392C86.2757 79.7376 86.3338 80.4586 86.4742 80.9297ZM91.2462 82.5593C90.2487 81.0667 89.9945 80.1871 89.9945 78.3052V74.4837C89.9945 72.4263 89.7475 71.6837 89.1955 70.9338C88.4426 69.8715 87.1691 69.41 84.8255 69.41C83.1743 69.41 81.5594 69.5879 80.0051 69.982L80.5595 72.6979C81.6127 72.5513 82.7167 72.4263 83.5157 72.4263C85.9827 72.4263 86.2757 72.782 86.2757 74.6303V75.3201C85.7237 75.1735 85.1087 75.0677 84.3752 75.0677C80.6346 75.0677 78.6541 76.8823 78.6541 79.8866C78.6541 82.7035 80.7677 84.2393 83.3486 84.2393C84.3195 84.2393 85.3121 84.0638 86.099 83.7418C86.5856 83.5351 86.7865 83.4125 87.4063 83.0135C87.784 83.5519 88.5321 84.1023 88.8396 84.2056L91.2462 82.5593ZM120.333 83.9196C120.333 83.9196 118.285 79.5862 117.784 78.6008C117.219 77.4904 116.697 76.7237 115.544 76.4473V76.3848C116.316 76.2382 116.931 75.7743 117.604 74.3563C118.241 72.9743 118.43 72.6763 118.805 72.347C119.173 72.0201 119.677 72.1379 119.677 72.1379L119.866 69.583C119.331 69.5109 118.738 69.5085 118.125 69.5422C117.108 69.6023 116.583 69.8931 116.082 70.393C115.689 70.7752 115.423 71.3472 115.094 72.0033C114.745 72.7195 114.469 73.2964 114.106 74.0246C113.745 74.7721 113.576 75.1086 112.605 75.1086H111.973V63.7907H108.232V83.9196H111.973V78.1321L112.484 78.1225C113.556 78.1225 113.745 78.3893 114.312 79.5117C114.975 80.8504 116.246 83.9196 116.246 83.9196H120.333ZM14.9579 83.9196H19.2747L12.7451 64.1272C12.0575 63.8989 11.2077 63.7571 10.2998 63.7571C9.30957 63.7571 8.95609 63.8869 8.18134 64.1272L1.27158 83.9196H5.41405C5.41405 83.9196 5.97332 82.1843 6.63185 80.0332H13.7886C14.4277 82.1819 14.9579 83.9196 14.9579 83.9196ZM7.68259 76.7141C7.68259 76.7141 8.87862 72.7412 9.06504 72.1235C9.53957 70.5228 10.261 67.9799 10.261 67.9799H10.3797C10.3797 67.9799 11.0479 70.6141 11.4837 72.0947C11.6483 72.6835 12.7911 76.7141 12.7911 76.7141H7.68259ZM55.8936 74.45C54.5741 74.45 53.5015 75.5196 53.5015 76.8294C53.5015 78.1489 54.5741 79.2113 55.8936 79.2113C57.2155 79.2113 58.2832 78.1489 58.2832 76.8294C58.2832 75.5196 57.2155 74.45 55.8936 74.45ZM24.4002 63.7907H20.6499V83.9172H24.4002V63.7907ZM98.9089 72.609C100.981 72.6523 101.238 73.0777 101.238 74.8033V83.9196H104.954V74.4837C104.954 72.4263 104.712 71.6837 104.16 70.9338C103.398 69.8715 101.899 69.41 99.364 69.41C96.8558 69.41 95.2579 69.6744 93.2024 70.2824V83.9196H96.9575V72.782C97.9429 72.6402 98.1172 72.609 98.9089 72.609ZM33.6753 63.4326C31.3317 63.4326 30.0558 63.8941 29.3053 64.954C28.7533 65.7063 28.5087 66.4658 28.5087 68.5279V70.2824H26.6469V73.2916H28.5087V83.9196H32.2275L32.2178 73.2916H35.9245V70.2824H32.2178L32.2275 68.6697C32.2275 66.8239 32.5108 66.4658 34.9948 66.4658C35.2635 66.4658 35.5662 66.4802 35.8882 66.5042L36.4741 63.6129C35.5565 63.4927 34.6171 63.4326 33.6753 63.4326ZM63.5127 63.6201C64.7886 63.5456 67.6406 63.4398 69.4298 63.4398C69.7566 63.4398 70.0956 63.4422 70.4346 63.4591C73.9524 63.4591 75.9692 66.0019 75.9692 68.987C75.9692 71.0179 75.0322 72.3662 72.8363 73.169C75.4196 73.7362 76.773 75.7383 76.773 78.1874C76.773 79.9852 76.2621 81.4128 75.3251 82.3862C74.1098 83.5735 72.2697 84.2393 69.8196 84.2393C67.6406 84.2393 64.9048 84.172 63.5127 84.0903V63.6201ZM69.4298 66.9176C68.81 66.9176 68.0425 66.9296 67.2823 66.9561V71.7894H69.4322C70.2845 71.7894 70.9696 71.5539 71.4369 71.0996C71.8824 70.6718 72.1148 70.0661 72.1148 69.3475C72.1148 67.8021 71.2722 66.9272 69.7058 66.9176H69.4298ZM69.5073 80.7687H69.6695C71.6233 80.7687 72.8193 79.7376 72.8338 77.661C72.8145 76.916 72.5264 76.2286 72.0107 75.7311C71.4466 75.1687 70.6476 74.8754 69.7107 74.8754H67.2823V80.7471C67.9675 80.7615 68.7229 80.7639 69.5073 80.7687Z" fill="#2C3E50"/>
</g>
<g clip-path="url(#clip1_1421_6585)">
<path d="M18.0312 -0.361328C21.7825 -0.361328 22.9613 2.30975 23.9502 4.97664C24.3657 6.10913 34.1141 32.6106 34.4072 33.4061C34.4852 33.628 34.4325 33.9922 34.0888 34.1241C33.743 34.2539 28.6779 36.2091 28.3975 36.3137C28.117 36.4205 27.8028 36.2656 27.7016 35.9872C27.5962 35.7129 25.4938 29.9354 25.2576 29.2906H10.8089C10.5812 29.9354 8.45354 35.7255 8.35865 35.9872C8.26165 36.253 7.96011 36.433 7.66068 36.3137C7.36124 36.1965 2.27721 34.2413 1.97356 34.1241C1.68256 34.0111 1.54972 33.6824 1.65093 33.4061C2.00941 32.4139 11.6102 6.33731 12.0995 4.97664C13.0526 2.34952 14.2714 -0.361328 18.0312 -0.361328ZM0.879156 47.0588C0.575506 47.0588 0.333008 47.31 0.333008 47.6156V53.8097C0.333008 54.1154 0.575506 54.3624 0.879156 54.3624H35.1684C35.4784 54.3624 35.7209 54.1154 35.7209 53.8097V47.6156C35.7209 47.31 35.4784 47.0588 35.1684 47.0588H0.879156ZM17.9974 8.29248L13.1137 22.8515H22.9613L18.0607 8.29248H17.9974ZM91.2805 32.1647C90.5614 32.4055 90.0869 32.4641 89.5218 32.4641C88.3536 32.4641 87.7062 32.0057 87.7062 30.8166C87.7062 29.5774 88.5286 29.1629 90.1439 29.1629C90.5382 29.1629 90.9262 29.2194 91.1075 29.2822V30.1698C91.1075 31.1265 91.1603 31.7545 91.2805 32.1647ZM95.4325 33.584C94.57 32.2841 94.3444 31.5179 94.3444 29.8788V26.5505C94.3444 24.7586 94.1335 24.1117 93.657 23.4586C92.9927 22.5334 91.8857 22.1314 89.8508 22.1314C88.4105 22.1314 87.0125 22.2864 85.6587 22.6297L86.1479 24.9951C87.0631 24.8674 88.0225 24.7586 88.6994 24.7586C90.8608 24.7586 91.1075 25.0684 91.1075 26.6781V27.2789C90.6268 27.1512 90.0869 27.0591 89.4607 27.0591C86.207 27.0591 84.4884 28.6396 84.4884 31.2562C84.4884 33.7096 86.3251 35.0473 88.5624 35.0473C89.3974 35.0473 90.2704 34.8944 90.9621 34.6139C91.3796 34.4339 91.5609 34.3272 92.1007 33.9797C92.4255 34.4486 93.0771 34.9279 93.3428 35.018L95.4325 33.584ZM127.617 32.1647C126.894 32.4055 126.428 32.4641 125.859 32.4641C124.686 32.4641 124.03 32.0057 124.03 30.8166C124.03 29.5774 124.863 29.1629 126.483 29.1629C126.877 29.1629 127.267 29.2194 127.444 29.2822V30.1698C127.444 31.1265 127.495 31.7545 127.617 32.1647ZM131.773 33.584C130.905 32.2841 130.683 31.5179 130.683 29.8788V26.5505C130.683 24.7586 130.468 24.1117 129.987 23.4586C129.332 22.5334 128.222 22.1314 126.181 22.1314C124.743 22.1314 123.337 22.2864 121.983 22.6297L122.466 24.9951C123.383 24.8674 124.345 24.7586 125.04 24.7586C127.189 24.7586 127.444 25.0684 127.444 26.6781V27.2789C126.964 27.1512 126.428 27.0591 125.789 27.0591C122.531 27.0591 120.806 28.6396 120.806 31.2562C120.806 33.7096 122.647 35.0473 124.895 35.0473C125.741 35.0473 126.605 34.8944 127.29 34.6139C127.714 34.4339 127.889 34.3272 128.429 33.9797C128.758 34.4486 129.41 34.9279 129.677 35.018L131.773 33.584ZM157.107 34.7688C157.107 34.7688 155.323 30.9946 154.887 30.1363C154.395 29.1692 153.94 28.5014 152.936 28.2607V28.2063C153.609 28.0786 154.145 27.6746 154.731 26.4395C155.285 25.2358 155.45 24.9763 155.777 24.6895C156.097 24.4048 156.536 24.5074 156.536 24.5074L156.7 22.2822C156.234 22.2194 155.718 22.2173 155.184 22.2466C154.298 22.2989 153.841 22.5522 153.404 22.9876C153.063 23.3205 152.831 23.8187 152.544 24.3901C152.24 25.014 152 25.5164 151.684 26.1506C151.369 26.8017 151.222 27.0947 150.376 27.0947H149.826V17.2373H146.568V34.7688H149.826V29.7281L150.271 29.7197C151.205 29.7197 151.369 29.9521 151.863 30.9297C152.441 32.0957 153.548 34.7688 153.548 34.7688H157.107ZM65.3289 34.7688H69.0887L63.4016 17.5303C62.8027 17.3315 62.0626 17.2079 61.2718 17.2079C60.4094 17.2079 60.1015 17.321 59.4267 17.5303L53.4085 34.7688H57.0165C57.0165 34.7688 57.5036 33.2575 58.0772 31.3839H64.3104C64.8671 33.2554 65.3289 34.7688 65.3289 34.7688ZM58.9923 28.4931C58.9923 28.4931 60.034 25.0328 60.1964 24.4948C60.6097 23.1007 61.2381 20.8859 61.2381 20.8859H61.3414C61.3414 20.8859 61.9234 23.1802 62.303 24.4697C62.4464 24.9826 63.4416 28.4931 63.4416 28.4931H58.9923ZM100.983 26.5211C99.8333 26.5211 98.8991 27.4527 98.8991 28.5935C98.8991 29.7428 99.8333 30.668 100.983 30.668C102.134 30.668 103.064 29.7428 103.064 28.5935C103.064 27.4527 102.134 26.5211 100.983 26.5211ZM73.5528 17.2373H70.2864V34.7668H73.5528V17.2373ZM138.447 24.9177C140.253 24.9553 140.476 25.3259 140.476 26.8289V34.7688H143.713V26.5505C143.713 24.7586 143.502 24.1117 143.021 23.4586C142.357 22.5334 141.052 22.1314 138.844 22.1314C136.659 22.1314 135.268 22.3617 133.477 22.8913V34.7688H136.748V25.0684C137.606 24.9449 137.758 24.9177 138.447 24.9177ZM81.6311 16.9254C79.5899 16.9254 78.4787 17.3273 77.825 18.2504C77.3442 18.9056 77.1312 19.5671 77.1312 21.3632V22.8913H75.5096V25.5122H77.1312V34.7688H80.3701L80.3617 25.5122H83.5901V22.8913H80.3617L80.3701 21.4867C80.3701 19.879 80.6169 19.5671 82.7804 19.5671C83.0144 19.5671 83.278 19.5797 83.5585 19.6006L84.0688 17.0823C83.2696 16.9777 82.4514 16.9254 81.6311 16.9254ZM107.619 17.0886C108.73 17.0237 111.214 16.9316 112.772 16.9316C113.057 16.9316 113.352 16.9337 113.647 16.9484C116.711 16.9484 118.468 19.1631 118.468 21.763C118.468 23.5319 117.652 24.7062 115.739 25.4054C117.989 25.8994 119.168 27.6432 119.168 29.7763C119.168 31.3421 118.723 32.5855 117.907 33.4333C116.848 34.4674 115.246 35.0473 113.112 35.0473C111.214 35.0473 108.831 34.9886 107.619 34.9175V17.0886ZM112.772 19.9607C112.232 19.9607 111.564 19.9711 110.902 19.9942V24.2038H112.774C113.517 24.2038 114.113 23.9987 114.52 23.6031C114.908 23.2304 115.111 22.7029 115.111 22.077C115.111 20.731 114.377 19.969 113.013 19.9607H112.772ZM112.84 32.0245H112.981C114.683 32.0245 115.724 31.1265 115.737 29.3178C115.72 28.6689 115.469 28.0702 115.02 27.6369C114.529 27.1471 113.833 26.8917 113.017 26.8917H110.902V32.0057C111.499 32.0182 112.156 32.0203 112.84 32.0245Z" fill="#2C3E50"/>
</g>
<defs>
<clipPath id="clip0_1421_6585">
<rect width="120" height="29" fill="white" transform="translate(0.333008 61)"/>
</clipPath>
<clipPath id="clip1_1421_6585">
<rect width="36.5806" height="54" fill="white" transform="translate(0.333008)"/>
</clipPath>
</defs>
</svg>
