<svg width="90" height="91" viewBox="0 0 90 91" fill="none" xmlns="http://www.w3.org/2000/svg">
<path d="M27.6311 90.1921C22.5335 90.1921 17.9428 89.1784 13.859 87.1509C9.77515 85.1235 6.50229 82.343 4.0404 78.8095C1.57851 75.2759 0.231707 71.25 0 66.7317H10.4268C10.8323 70.7576 12.657 74.0884 15.9009 76.7241C19.1738 79.3308 23.0838 80.6342 27.6311 80.6342C31.2805 80.6342 34.5244 79.7797 37.3628 78.0709C40.2302 76.362 42.4748 74.016 44.0968 71.0328C45.7477 68.0206 46.5732 64.6174 46.5732 60.8232C46.5732 56.9421 45.7188 53.4809 44.0099 50.4398C42.33 47.3697 40.013 44.9512 37.0587 43.1845C34.1044 41.4177 30.7302 40.5198 26.936 40.4909C24.2134 40.4619 21.4184 40.8819 18.5511 41.7508C15.6837 42.5907 13.3232 43.6768 11.4695 45.0092L1.39024 43.7927L6.77744 0H53.003V9.55793H15.814L12.686 35.7988H13.2073C15.032 34.3506 17.3201 33.1486 20.0716 32.1928C22.8232 31.237 25.6905 30.7591 28.6738 30.7591C34.1189 30.7591 38.9703 32.0625 43.2279 34.6692C47.5145 37.247 50.8742 40.7805 53.3072 45.2698C55.7691 49.7592 57 54.8857 57 60.6494C57 66.3262 55.7256 71.3948 53.1768 75.8552C50.657 80.2866 47.1814 83.7912 42.75 86.3689C38.3186 88.9177 33.279 90.1921 27.6311 90.1921Z" fill="#1ABC9C"/>
</svg>
