<svg width="180" height="90" viewBox="0 0 180 90" fill="none" xmlns="http://www.w3.org/2000/svg">
<path d="M36.6594 19.9688L18.3693 38.388H36.6594V75.0716L55.1045 56.8072V19.9688H36.6594Z" fill="#2C3E50"/>
<path d="M18.4451 75.0716L36.7352 56.6524H18.4451V19.9688L0 38.2332V75.0716H18.4451Z" fill="#2C3E50"/>
<path d="M75.3088 29.1525V65.8877H84.8539V37.4873H99.4793V65.8877H109.024V29.1525H75.3088Z" fill="#2C3E50"/>
<path d="M166.341 58.1376H159.288V50.8525H166.341C168.592 50.8525 170.843 51.7826 170.843 54.5727C170.693 57.2077 168.592 58.1376 166.341 58.1376ZM167.241 42.9474H159.288V37.3675H177.146V29.1525H149.834V65.8877H167.542C174.595 65.8877 179.997 62.1677 179.997 54.4177C180.147 46.6676 174.745 42.9474 167.241 42.9474Z" fill="#2C3E50"/>
<path d="M131.862 57.8566C125.484 57.8566 121.991 53.2961 121.991 47.5193C121.991 42.9588 124.572 37.182 131.71 37.182C136.114 37.182 138.999 39.9184 140.063 41.1345L145.833 35.3578C142.34 31.2533 137.177 28.5169 131.254 28.5169C120.776 28.5169 112.575 36.2699 112.575 47.5193C112.575 58.0087 120.776 66.5217 131.254 66.5217C137.481 66.5217 143.1 63.4813 146.441 58.7687L140.67 52.9919C138.848 55.7284 135.81 57.8566 131.862 57.8566Z" fill="#2C3E50"/>
</svg>
