<svg width="200" height="36" viewBox="0 0 200 36" fill="none" xmlns="http://www.w3.org/2000/svg">
<path d="M10 15.7275C10 17.9367 8.20914 19.7275 6 19.7275C3.79086 19.7275 2 17.9367 2 15.7275C2 13.5184 3.79086 11.7275 6 11.7275C8.20914 11.7275 10 13.5184 10 15.7275Z" fill="#F1C40F"/>
<path d="M14 7.72754C14 5.5184 15.7909 3.72754 18 3.72754C20.2091 3.72754 22 5.5184 22 7.72754V23.7275C22 25.9367 20.2091 27.7275 18 27.7275C15.7909 27.7275 14 25.9367 14 23.7275V7.72754Z" fill="#ECEEF1"/>
<path d="M26 11.7275C26 9.5184 27.7909 7.72754 30 7.72754C32.2091 7.72754 34 9.5184 34 11.7275V19.7275C34 21.9367 32.2091 23.7275 30 23.7275C27.7909 23.7275 26 21.9367 26 19.7275V11.7275Z" fill="#1ABC9C"/>
<path d="M38 13.7275C38 11.5184 39.7909 9.72754 42 9.72754C44.2091 9.72754 46 11.5184 46 13.7275V17.7275C46 19.9367 44.2091 21.7275 42 21.7275C39.7909 21.7275 38 19.9367 38 17.7275V13.7275Z" fill="#F1C40F"/>
<path d="M2 30.7275C2 30.1753 2.44772 29.7275 3 29.7275H45C45.5523 29.7275 46 30.1753 46 30.7275C46 31.2798 45.5523 31.7275 45 31.7275H3C2.44771 31.7275 2 31.2798 2 30.7275Z" fill="#585D69" fill-opacity="0.5"/>
<path d="M66.7891 3.91797V17.7578H63.332V3.91797H58V1.24609H72.1328V3.91797H66.7891Z" fill="#ECEEF1"/>
<path d="M75.7984 13.5391L74.3336 17.7578H70.8766L76.9 1.24609H80.9781L86.9781 17.7578H83.5562L82.0914 13.5391H75.7984ZM78.9391 3.78906C78.8609 4.10156 78.7516 4.47656 78.6109 4.91406C78.4703 5.35156 78.3687 5.66016 78.3062 5.83984L76.5719 10.9375H81.318L79.5367 5.73438C79.4273 5.41406 79.3258 5.08984 79.232 4.76172C79.1383 4.43359 79.0406 4.10938 78.9391 3.78906Z" fill="#ECEEF1"/>
<path d="M92.0734 10.668V17.7578H88.6281V1.24609H92.0852V8.26562C92.2883 8.26562 92.4992 8.20703 92.718 8.08984C92.9367 7.96484 93.1633 7.78125 93.3977 7.53906C93.8742 7.03125 94.4758 6.19922 95.2023 5.04297L97.6164 1.24609H101.132L98.0266 5.99219C97.05 7.47656 96.382 8.35156 96.0227 8.61719L101.706 17.7578H97.9445L93.5617 10.2578C93.4055 10.3594 93.175 10.4531 92.8703 10.5391C92.5656 10.625 92.3 10.668 92.0734 10.668Z" fill="#ECEEF1"/>
<path d="M110.739 3.91797V17.7578H107.282V3.91797H101.95V1.24609H116.083V3.91797H110.739Z" fill="#ECEEF1"/>
<path d="M132.827 9.42578C132.827 11.1445 132.479 12.6484 131.784 13.9375C131.096 15.2188 130.123 16.2148 128.866 16.9258C127.616 17.6367 126.147 17.9922 124.459 17.9922C122.733 17.9922 121.248 17.6484 120.006 16.9609C118.764 16.2656 117.811 15.2773 117.147 13.9961C116.483 12.7148 116.151 11.1914 116.151 9.42578C116.151 7.66016 116.479 6.14844 117.135 4.89062C117.799 3.63281 118.752 2.67188 119.995 2.00781C121.245 1.33594 122.741 1 124.483 1C126.233 1 127.729 1.33984 128.971 2.01953C130.213 2.69141 131.166 3.65625 131.83 4.91406C132.495 6.17188 132.827 7.67578 132.827 9.42578ZM129.299 9.42578C129.299 7.64453 128.877 6.25 128.034 5.24219C127.19 4.22656 126.006 3.71875 124.483 3.71875C122.936 3.71875 121.741 4.22266 120.897 5.23047C120.053 6.23047 119.631 7.62891 119.631 9.42578C119.631 10.6289 119.827 11.668 120.217 12.543C120.608 13.418 121.162 14.0938 121.881 14.5703C122.608 15.0391 123.467 15.2734 124.459 15.2734C126.006 15.2734 127.198 14.7656 128.034 13.75C128.877 12.7344 129.299 11.293 129.299 9.42578Z" fill="#ECEEF1"/>
<path d="M58.2227 33.875V31.0625H58.7681C58.9016 30.9233 59.0167 30.7727 59.1133 30.6108C59.2099 30.4489 59.2937 30.2571 59.3647 30.0355C59.4386 29.8111 59.5011 29.5384 59.5522 29.2173C59.6033 28.8935 59.6488 28.5028 59.6886 28.0455L59.9102 25.4545H64.0692V31.0625H65.0749V33.875H64.0692V32H59.2283V33.875H58.2227ZM59.9102 31.0625H63.0636V26.392H60.8477L60.6772 28.0455C60.6062 28.7301 60.5181 29.3281 60.413 29.8395C60.3079 30.3509 60.1403 30.7585 59.9102 31.0625Z" fill="#ECEEF1"/>
<path d="M67.4155 30.517L70.5689 25.4545H71.728V32H70.7223V26.9375L67.5859 32H66.4098V25.4545H67.4155V30.517Z" fill="#ECEEF1"/>
<path d="M73.57 34.4545V25.4545H74.5415V26.4943H74.6609C74.7347 26.3807 74.837 26.2358 74.9677 26.0597C75.1012 25.8807 75.2915 25.7216 75.5387 25.5824C75.7887 25.4403 76.1268 25.3693 76.5529 25.3693C77.104 25.3693 77.5898 25.5071 78.0103 25.7827C78.4308 26.0582 78.7589 26.4489 78.9947 26.9545C79.2305 27.4602 79.3484 28.0568 79.3484 28.7443C79.3484 29.4375 79.2305 30.0384 78.9947 30.5469C78.7589 31.0526 78.4322 31.4446 78.0146 31.723C77.5969 31.9986 77.1154 32.1364 76.57 32.1364C76.1495 32.1364 75.8129 32.0668 75.56 31.9276C75.3072 31.7855 75.1126 31.625 74.9762 31.446C74.8398 31.2642 74.7347 31.1136 74.6609 30.9943H74.5756V34.4545H73.57ZM74.5586 28.7273C74.5586 29.2216 74.631 29.6577 74.7759 30.0355C74.9208 30.4105 75.1325 30.7045 75.4109 30.9176C75.6893 31.1278 76.0302 31.233 76.4336 31.233C76.854 31.233 77.2049 31.1222 77.4862 30.9006C77.7702 30.6761 77.9833 30.375 78.1254 29.9972C78.2702 29.6165 78.3427 29.1932 78.3427 28.7273C78.3427 28.267 78.2717 27.8523 78.1296 27.483C77.9904 27.1108 77.7788 26.8168 77.4947 26.6009C77.2134 26.3821 76.8597 26.2727 76.4336 26.2727C76.0245 26.2727 75.6808 26.3764 75.4023 26.5838C75.1239 26.7884 74.9137 27.0753 74.7717 27.4446C74.6296 27.8111 74.5586 28.2386 74.5586 28.7273Z" fill="#ECEEF1"/>
<path d="M81.8881 30.517L85.0415 25.4545H86.2006V32H85.195V26.9375L82.0586 32H80.8825V25.4545H81.8881V30.517Z" fill="#ECEEF1"/>
<path d="M87.6335 32L90.2926 28.6761L87.6676 25.4545H88.8608L91.0426 28.25H91.5881V25.4545H92.5938V28.25H93.1222L95.304 25.4545H96.4972L93.8892 28.6761L96.5312 32H95.321L93.1051 29.1875H92.5938V32H91.5881V29.1875H91.0767L88.8438 32H87.6335Z" fill="#ECEEF1"/>
<path d="M100.443 32.1364C99.8125 32.1364 99.2685 31.9972 98.8111 31.7188C98.3565 31.4375 98.0057 31.0455 97.7585 30.5426C97.5142 30.0369 97.392 29.4489 97.392 28.7784C97.392 28.108 97.5142 27.517 97.7585 27.0057C98.0057 26.4915 98.3494 26.0909 98.7898 25.804C99.233 25.5142 99.75 25.3693 100.341 25.3693C100.682 25.3693 101.018 25.4261 101.351 25.5398C101.683 25.6534 101.986 25.8381 102.259 26.0938C102.531 26.3466 102.749 26.6818 102.911 27.0994C103.072 27.517 103.153 28.0312 103.153 28.642V29.0682H98.108V28.1989H102.131C102.131 27.8295 102.057 27.5 101.909 27.2102C101.764 26.9205 101.557 26.6918 101.287 26.5241C101.02 26.3565 100.705 26.2727 100.341 26.2727C99.9403 26.2727 99.5938 26.3722 99.3011 26.571C99.0114 26.767 98.7884 27.0227 98.6321 27.3381C98.4759 27.6534 98.3977 27.9915 98.3977 28.3523V28.9318C98.3977 29.4261 98.483 29.8452 98.6534 30.1889C98.8267 30.5298 99.0668 30.7898 99.3736 30.9688C99.6804 31.1449 100.037 31.233 100.443 31.233C100.707 31.233 100.946 31.196 101.159 31.1222C101.375 31.0455 101.561 30.9318 101.717 30.7812C101.874 30.6278 101.994 30.4375 102.08 30.2102L103.051 30.483C102.949 30.8125 102.777 31.1023 102.536 31.3523C102.294 31.5994 101.996 31.7926 101.641 31.9318C101.286 32.0682 100.886 32.1364 100.443 32.1364Z" fill="#ECEEF1"/>
<path d="M104.683 34.4545V25.4545H105.655V26.4943H105.774C105.848 26.3807 105.95 26.2358 106.081 26.0597C106.214 25.8807 106.405 25.7216 106.652 25.5824C106.902 25.4403 107.24 25.3693 107.666 25.3693C108.217 25.3693 108.703 25.5071 109.124 25.7827C109.544 26.0582 109.872 26.4489 110.108 26.9545C110.344 27.4602 110.462 28.0568 110.462 28.7443C110.462 29.4375 110.344 30.0384 110.108 30.5469C109.872 31.0526 109.545 31.4446 109.128 31.723C108.71 31.9986 108.229 32.1364 107.683 32.1364C107.263 32.1364 106.926 32.0668 106.673 31.9276C106.42 31.7855 106.226 31.625 106.089 31.446C105.953 31.2642 105.848 31.1136 105.774 30.9943H105.689V34.4545H104.683ZM105.672 28.7273C105.672 29.2216 105.744 29.6577 105.889 30.0355C106.034 30.4105 106.246 30.7045 106.524 30.9176C106.803 31.1278 107.143 31.233 107.547 31.233C107.967 31.233 108.318 31.1222 108.599 30.9006C108.884 30.6761 109.097 30.375 109.239 29.9972C109.384 29.6165 109.456 29.1932 109.456 28.7273C109.456 28.267 109.385 27.8523 109.243 27.483C109.104 27.1108 108.892 26.8168 108.608 26.6009C108.327 26.3821 107.973 26.2727 107.547 26.2727C107.138 26.2727 106.794 26.3764 106.516 26.5838C106.237 26.7884 106.027 27.0753 105.885 27.4446C105.743 27.8111 105.672 28.2386 105.672 28.7273Z" fill="#ECEEF1"/>
<path d="M120.229 23L120.74 23.6136C120.541 23.8068 120.311 23.9418 120.05 24.0185C119.788 24.0952 119.493 24.142 119.163 24.1591C118.834 24.1761 118.467 24.1932 118.064 24.2102C117.609 24.2273 117.233 24.3381 116.935 24.5426C116.636 24.7472 116.406 25.0426 116.244 25.429C116.082 25.8153 115.979 26.2898 115.933 26.8523H116.018C116.24 26.4432 116.547 26.142 116.939 25.9489C117.331 25.7557 117.751 25.6591 118.2 25.6591C118.712 25.6591 119.172 25.7784 119.581 26.017C119.99 26.2557 120.314 26.6094 120.553 27.0781C120.791 27.5469 120.911 28.125 120.911 28.8125C120.911 29.4972 120.788 30.0881 120.544 30.5852C120.303 31.0824 119.963 31.4659 119.526 31.7358C119.091 32.0028 118.581 32.1364 117.996 32.1364C117.411 32.1364 116.898 31.9986 116.457 31.723C116.017 31.4446 115.675 31.0327 115.43 30.4872C115.186 29.9389 115.064 29.2614 115.064 28.4545V27.7557C115.064 26.2983 115.311 25.1932 115.805 24.4403C116.303 23.6875 117.05 23.2983 118.047 23.2727C118.399 23.2614 118.713 23.2585 118.989 23.2642C119.264 23.2699 119.504 23.2571 119.709 23.2259C119.913 23.1946 120.087 23.1193 120.229 23ZM117.996 31.233C118.391 31.233 118.73 31.1335 119.014 30.9347C119.301 30.7358 119.521 30.456 119.675 30.0952C119.828 29.7315 119.905 29.304 119.905 28.8125C119.905 28.3352 119.827 27.929 119.67 27.5938C119.517 27.2585 119.297 27.0028 119.01 26.8267C118.723 26.6506 118.379 26.5625 117.979 26.5625C117.686 26.5625 117.423 26.6122 117.19 26.7116C116.957 26.8111 116.759 26.9574 116.594 27.1506C116.429 27.3438 116.301 27.5795 116.21 27.858C116.122 28.1364 116.075 28.4545 116.07 28.8125C116.07 29.5455 116.241 30.1321 116.585 30.5724C116.929 31.0128 117.399 31.233 117.996 31.233Z" fill="#ECEEF1"/>
<path d="M123.455 30.517L126.608 25.4545H127.767V32H126.761V26.9375L123.625 32H122.449V25.4545H123.455V30.517Z" fill="#ECEEF1"/>
<path d="M129.2 30.3295H130.274C130.297 30.625 130.43 30.8494 130.674 31.0028C130.922 31.1563 131.243 31.233 131.637 31.233C132.041 31.233 132.386 31.1506 132.673 30.9858C132.96 30.8182 133.103 30.5483 133.103 30.1761C133.103 29.9574 133.049 29.767 132.941 29.6051C132.833 29.4403 132.681 29.3125 132.485 29.2216C132.289 29.1307 132.058 29.0852 131.791 29.0852H130.666V28.1818H131.791C132.191 28.1818 132.487 28.0909 132.677 27.9091C132.87 27.7273 132.967 27.5 132.967 27.2273C132.967 26.9347 132.863 26.7003 132.656 26.5241C132.449 26.3452 132.154 26.2557 131.774 26.2557C131.39 26.2557 131.071 26.3423 130.815 26.5156C130.559 26.6861 130.424 26.9062 130.41 27.1761H129.353C129.365 26.8239 129.473 26.5128 129.677 26.2429C129.882 25.9702 130.16 25.7571 130.512 25.6037C130.865 25.4474 131.268 25.3693 131.723 25.3693C132.183 25.3693 132.582 25.4503 132.92 25.6122C133.261 25.7713 133.524 25.9886 133.708 26.2642C133.896 26.5369 133.99 26.8466 133.99 27.1932C133.99 27.5625 133.886 27.8608 133.679 28.0881C133.471 28.3153 133.211 28.4773 132.899 28.5739V28.642C133.146 28.6591 133.36 28.7386 133.542 28.8807C133.727 29.0199 133.87 29.2031 133.973 29.4304C134.075 29.6548 134.126 29.9034 134.126 30.1761C134.126 30.5739 134.02 30.9205 133.806 31.2159C133.593 31.5085 133.301 31.7358 132.929 31.8977C132.556 32.0568 132.132 32.1364 131.654 32.1364C131.191 32.1364 130.777 32.0611 130.41 31.9105C130.044 31.7571 129.752 31.5455 129.537 31.2756C129.324 31.0028 129.211 30.6875 129.2 30.3295Z" fill="#ECEEF1"/>
<path d="M139.919 28.267V29.2045H136.306V28.267H139.919ZM136.544 25.4545V32H135.539V25.4545H136.544ZM140.686 25.4545V32H139.681V25.4545H140.686Z" fill="#ECEEF1"/>
<path d="M145.267 32.1364C144.637 32.1364 144.093 31.9972 143.635 31.7188C143.181 31.4375 142.83 31.0455 142.583 30.5426C142.338 30.0369 142.216 29.4489 142.216 28.7784C142.216 28.108 142.338 27.517 142.583 27.0057C142.83 26.4915 143.174 26.0909 143.614 25.804C144.057 25.5142 144.574 25.3693 145.165 25.3693C145.506 25.3693 145.843 25.4261 146.175 25.5398C146.507 25.6534 146.81 25.8381 147.083 26.0938C147.355 26.3466 147.573 26.6818 147.735 27.0994C147.897 27.517 147.978 28.0312 147.978 28.642V29.0682H142.932V28.1989H146.955C146.955 27.8295 146.881 27.5 146.733 27.2102C146.588 26.9205 146.381 26.6918 146.111 26.5241C145.844 26.3565 145.529 26.2727 145.165 26.2727C144.765 26.2727 144.418 26.3722 144.125 26.571C143.836 26.767 143.613 27.0227 143.456 27.3381C143.3 27.6534 143.222 27.9915 143.222 28.3523V28.9318C143.222 29.4261 143.307 29.8452 143.478 30.1889C143.651 30.5298 143.891 30.7898 144.198 30.9688C144.505 31.1449 144.861 31.233 145.267 31.233C145.532 31.233 145.77 31.196 145.983 31.1222C146.199 31.0455 146.385 30.9318 146.542 30.7812C146.698 30.6278 146.819 30.4375 146.904 30.2102L147.875 30.483C147.773 30.8125 147.601 31.1023 147.36 31.3523C147.118 31.5994 146.82 31.7926 146.465 31.9318C146.11 32.0682 145.711 32.1364 145.267 32.1364Z" fill="#ECEEF1"/>
<path d="M152.167 32.1364C151.553 32.1364 151.025 31.9915 150.581 31.7017C150.138 31.4119 149.797 31.0128 149.559 30.5043C149.32 29.9957 149.201 29.4148 149.201 28.7614C149.201 28.0966 149.323 27.5099 149.567 27.0014C149.814 26.4901 150.158 26.0909 150.598 25.804C151.042 25.5142 151.559 25.3693 152.15 25.3693C152.61 25.3693 153.025 25.4545 153.394 25.625C153.763 25.7955 154.066 26.0341 154.301 26.3409C154.537 26.6477 154.684 27.0057 154.74 27.4148H153.735C153.658 27.1165 153.488 26.8523 153.223 26.6222C152.962 26.3892 152.61 26.2727 152.167 26.2727C151.775 26.2727 151.431 26.375 151.135 26.5795C150.843 26.7812 150.614 27.0668 150.449 27.4361C150.287 27.8026 150.206 28.233 150.206 28.7273C150.206 29.233 150.286 29.6733 150.445 30.0483C150.607 30.4233 150.834 30.7145 151.127 30.9219C151.422 31.1293 151.769 31.233 152.167 31.233C152.428 31.233 152.665 31.1875 152.878 31.0966C153.091 31.0057 153.272 30.875 153.419 30.7045C153.567 30.5341 153.672 30.3295 153.735 30.0909H154.74C154.684 30.4773 154.543 30.8253 154.319 31.1349C154.097 31.4418 153.803 31.6861 153.436 31.8679C153.073 32.0469 152.65 32.1364 152.167 32.1364Z" fill="#ECEEF1"/>
<path d="M158.137 32.1534C157.722 32.1534 157.346 32.0753 157.007 31.919C156.669 31.7599 156.401 31.5313 156.202 31.233C156.003 30.9318 155.904 30.5682 155.904 30.142C155.904 29.767 155.978 29.4631 156.125 29.2301C156.273 28.9943 156.471 28.8097 156.718 28.6761C156.965 28.5426 157.238 28.4432 157.536 28.3778C157.837 28.3097 158.14 28.2557 158.444 28.2159C158.841 28.1648 159.164 28.1264 159.411 28.1009C159.661 28.0724 159.843 28.0256 159.956 27.9602C160.073 27.8949 160.131 27.7812 160.131 27.6193V27.5852C160.131 27.1648 160.016 26.8381 159.786 26.6051C159.559 26.3722 159.213 26.2557 158.75 26.2557C158.27 26.2557 157.894 26.3608 157.621 26.571C157.348 26.7812 157.157 27.0057 157.046 27.2443L156.091 26.9034C156.262 26.5057 156.489 26.196 156.773 25.9744C157.06 25.75 157.373 25.5938 157.711 25.5057C158.051 25.4148 158.387 25.3693 158.716 25.3693C158.926 25.3693 159.168 25.3949 159.441 25.446C159.716 25.4943 159.982 25.5952 160.238 25.7486C160.496 25.902 160.711 26.1335 160.881 26.4432C161.051 26.7528 161.137 27.1676 161.137 27.6875V32H160.131V31.1136H160.08C160.012 31.2557 159.898 31.4077 159.739 31.5696C159.58 31.7315 159.368 31.8693 159.104 31.983C158.84 32.0966 158.517 32.1534 158.137 32.1534ZM158.29 31.25C158.688 31.25 159.023 31.1719 159.296 31.0156C159.571 30.8594 159.779 30.6577 159.918 30.4105C160.06 30.1634 160.131 29.9034 160.131 29.6307V28.7102C160.088 28.7614 159.995 28.8082 159.85 28.8509C159.708 28.8906 159.543 28.9261 159.355 28.9574C159.171 28.9858 158.99 29.0114 158.814 29.0341C158.641 29.054 158.5 29.071 158.392 29.0852C158.131 29.1193 157.887 29.1747 157.659 29.2514C157.435 29.3253 157.253 29.4375 157.114 29.5881C156.978 29.7358 156.909 29.9375 156.909 30.1932C156.909 30.5426 157.039 30.8068 157.297 30.9858C157.559 31.1619 157.89 31.25 158.29 31.25Z" fill="#ECEEF1"/>
</svg>
